<svg xmlns="http://www.w3.org/2000/svg" viewBox="0 0 73.7 73.7"><defs><style>.cls-1{fill:#c6171e;}.cls-2{fill:#fff;}</style></defs><g id="Calque_2" data-name="Calque 2"><g id="Calque_1-2" data-name="Calque 1"><circle class="cls-1" cx="36.85" cy="36.85" r="36.85"/><path class="cls-2" d="M50.88,31.27a3.28,3.28,0,0,0-3.28,3.27v.18H41.37V39H47.6a.86.86,0,0,1,0,.16,3.29,3.29,0,0,0,3.28,3.28,3.28,3.28,0,0,0,2.33-5.59,3.27,3.27,0,0,0-2.32-5.58Z"/><path class="cls-2" d="M25.15,41.47a3.25,3.25,0,0,0,1-2.31,1,1,0,0,0,0-.17h6.23V34.71H26.1a1,1,0,0,1,0-.17,3.3,3.3,0,0,0-1-2.31,3.28,3.28,0,0,0-5.59,2.31,3.29,3.29,0,0,0,1,2.31,3.27,3.27,0,0,0,2.32,5.59A3.26,3.26,0,0,0,25.15,41.47Z"/><path class="cls-2" d="M39,47.6V26.1h.17a3.18,3.18,0,0,0,2.31-1,3.21,3.21,0,0,0,1-2.32,3.26,3.26,0,0,0-5.57-2.32h0a3.28,3.28,0,0,0-5.58,2.33,3.28,3.28,0,0,0,3.27,3.27h.17V47.6h-.18a3.28,3.28,0,1,0,2.31,5.59,3.29,3.29,0,0,0,2.31,1,3.25,3.25,0,0,0,2.31-1,3.2,3.2,0,0,0,1-2.31,3.28,3.28,0,0,0-3.27-3.28Z"/></g></g></svg>