<svg xmlns="http://www.w3.org/2000/svg" viewBox="0 0 73.7 73.7"><defs><style>.cls-1{fill:#205d91;}.cls-2{fill:#fff;}</style></defs><g id="Calque_2" data-name="Calque 2"><g id="Calque_1-2" data-name="Calque 1"><circle class="cls-1" cx="36.85" cy="36.85" r="36.85"/><polygon class="cls-2" points="30.42 46.34 35.39 41.37 31.15 37.13 28.62 39.66 26.18 42.1 26.18 42.1 26.18 42.1 23.25 39.17 23.25 45.02 21.24 47.04 19.22 49.06 21.34 51.18 23.46 53.3 27.5 49.27 33.35 49.27 30.42 46.34"/><path class="cls-2" d="M54.48,49.06l-4-4V39.17L47.52,42.1,30.07,24.64,25.82,20.4a6,6,0,0,0,0,8.49L43.28,46.34l-2.93,2.93H46.2l4,4Z"/><path class="cls-2" d="M43.63,24.64,38.31,30l4.24,4.24,5.33-5.32a6.28,6.28,0,0,0,1.32-2,6,6,0,0,0-1.32-6.5h0Z"/></g></g></svg>