<svg xmlns="http://www.w3.org/2000/svg" viewBox="0 0 73.7 73.7"><defs><style>.cls-1{fill:#205d91;}.cls-2{fill:#fff;}</style></defs><g id="Calque_2" data-name="Calque 2"><g id="Calque_1-2" data-name="Calque 1"><circle class="cls-1" cx="36.85" cy="36.85" r="36.85"/><path class="cls-2" d="M36.85,33.64a14,14,0,0,1,4.46.73l6.13-6.22V19.46H26.26v8.69l6.13,6.22A14,14,0,0,1,36.85,33.64Z"/><circle class="cls-2" cx="36.85" cy="45.86" r="5.33"/><path class="cls-2" d="M36.85,35.88a10,10,0,1,0,10,10A10,10,0,0,0,36.85,35.88Zm0,16.86a6.88,6.88,0,1,1,6.88-6.88A6.89,6.89,0,0,1,36.85,52.74Z"/></g></g></svg>