<svg xmlns="http://www.w3.org/2000/svg" viewBox="0 0 73.7 73.7"><defs><style>.cls-1{fill:#c6171e;}.cls-2{fill:#fff;}</style></defs><g id="Calque_2" data-name="Calque 2"><g id="Calque_1-2" data-name="Calque 1"><circle class="cls-1" cx="36.85" cy="36.85" r="36.85"/><path class="cls-2" d="M50.82,31.55A12.45,12.45,0,0,0,38.4,19.13H35.3A12.46,12.46,0,0,0,22.88,31.55c0,6.79.78,6,.78,12.27a43,43,0,0,1-.78,9.4L28.09,48l4.38,4.38L36.85,48l4.38,4.38L45.61,48l5.21,5.21S50,52.15,50,44.6,50.82,38.35,50.82,31.55ZM29,27.57l6.76,6.76A4.78,4.78,0,1,1,29,27.57Zm15.75,6.76a4.79,4.79,0,0,1-6.77,0l6.77-6.76A4.79,4.79,0,0,1,44.73,34.33Z"/></g></g></svg>