<svg xmlns="http://www.w3.org/2000/svg" viewBox="0 0 73.7 73.7"><defs><style>.cls-1{fill:#c6171e;}.cls-2{fill:#fff;}</style></defs><g id="Calque_2" data-name="Calque 2"><g id="Calque_1-2" data-name="Calque 1"><circle class="cls-1" cx="36.85" cy="36.85" r="36.85"/><path class="cls-2" d="M53.85,34.66c-3.7-14.68-17-14.39-17-14.39h-.1S23.55,20,19.85,34.66c-.69,2.88-.5,8.82,4.43,8.91h25C54.35,43.56,54.55,37.56,53.85,34.66ZM32,35.57a3.65,3.65,0,1,1,3.65-3.65A3.65,3.65,0,0,1,32,35.57Zm8.4-8.79a1.5,1.5,0,1,1,1.49,1.5A1.49,1.49,0,0,1,40.44,26.78Zm4,11A2.51,2.51,0,1,1,47,35.28,2.51,2.51,0,0,1,44.44,37.79Z"/><path class="cls-2" d="M36.85,53.43A7.42,7.42,0,0,0,44.27,46H29.43A7.42,7.42,0,0,0,36.85,53.43Z"/></g></g></svg>